<?xml version="1.0" standalone="no"?><!DOCTYPE svg PUBLIC "-//W3C//DTD SVG 20010904//EN" "http://www.w3.org/TR/2001/REC-SVG-20010904/DTD/svg10.dtd"><svg version="1.0" xmlns="http://www.w3.org/2000/svg" width="165.000000" height="178.000000" viewBox="0 0 165.000000 178.000000" preserveAspectRatio="xMidYMid meet"><g transform="translate(0.000000,178.000000) scale(0.100000,-0.100000)" fill="#000000" stroke="none"><path d="M1045 1763 c-74 -38 -132 -128 -175 -271 -24 -78 -18 -73 -118 -85 -30 -3 -35 0 -52 34 -42 82 -142 129 -276 129 -219 0 -364 -147 -364 -369 0 -18 -12 -49 -27 -73 -22 -32 -28 -56 -31 -110 -5 -87 15 -144 68 -192 47 -42 92 -56 189 -56 l73 0 65 -60 c35 -33 68 -60 73 -60 5 0 2 -16 -6 -35 -21 -50 -17 -97 10 -137 13 -19 26 -56 30 -81 13 -85 99 -167 209 -197 34 -10 37 -14 37 -47 0 -55 21 -112 49 -134 21 -17 35 -19 71 -15 25 4 66 6 92 6 59 -1 91 27 108 91 6 24 13 49 15 56 2 6 28 16 57 22 29 7 69 22 89 35 32 22 69 77 69 105 0 6 11 18 26 27 34 23 54 65 54 116 0 42 1 43 53 66 85 36 161 102 192 167 26 52 27 61 23 158 -6 123 -34 204 -103 307 -26 39 -51 73 -56 75 -4 3 19 58 52 123 77 155 87 224 39 272 -15 15 -34 20 -73 20 -47 0 -59 -5 -94 -35 -40 -34 -98 -124 -137 -212 -11 -26 -26 -43 -35 -42 -34 1 -126 36 -124 47 2 7 22 53 44 104 53 116 64 209 30 246 -26 27 -100 30 -146 5z m109 -55 c14 -23 -4 -88 -60 -213 -59 -129 -57 -133 71 -169 118 -34 111 -37 191 113 70 133 89 154 146 155 l43 1 3 -44 c4 -48 -24 -120 -84 -220 -19 -31 -34 -67 -34 -80 0 -14 22 -56 49 -95 63 -92 86 -139 105 -213 22 -86 21 -167 -5 -220 -36 -74 -179 -173 -251 -173 -32 0 -37 -22 -13 -54 19 -25 19 -57 1 -81 -13 -18 -14 -17 -20 12 -8 35 -30 58 -45 49 -6 -4 -7 -34 -4 -75 5 -60 3 -74 -17 -105 -27 -45 -66 -66 -136 -73 -58 -6 -58 -6 -69 -80 -4 -24 -15 -53 -25 -65 -18 -22 -20 -22 -36 -6 -12 11 -19 40 -23 85 -5 59 -9 68 -26 68 -18 0 -20 -7 -21 -79 -1 -64 -4 -82 -19 -92 -38 -28 -75 26 -75 110 0 53 -7 62 -60 81 -104 37 -174 97 -186 161 -3 19 -2 58 4 87 13 63 0 84 -29 48 -16 -20 -20 -21 -25 -7 -11 29 17 77 53 93 43 17 38 33 -14 50 -22 8 -58 29 -79 47 -39 34 -39 34 -20 55 27 29 8 50 -29 33 -25 -11 -27 -10 -42 25 -31 74 -29 183 3 183 23 0 74 55 74 80 0 11 -7 32 -16 45 -15 23 -14 25 25 68 44 47 148 108 218 126 23 6 74 15 113 20 81 10 105 27 114 76 9 46 72 182 103 223 49 65 122 90 147 50z m-619 -199 c42 -12 125 -85 125 -111 0 -9 -26 -25 -65 -40 -50 -20 -65 -23 -65 -12 0 22 -47 47 -75 40 -26 -7 -26 -7 -29 -106 -1 -14 -12 -42 -26 -62 -21 -32 -31 -38 -62 -38 -49 0 -68 -9 -68 -31 0 -16 6 -18 43 -13 33 5 47 2 66 -13 15 -13 21 -24 16 -32 -11 -19 -69 -41 -105 -41 -25 0 -31 -4 -28 -17 2 -10 13 -19 24 -21 19 -3 21 -9 21 -60 -1 -31 2 -69 6 -84 6 -22 4 -28 -8 -28 -8 0 -15 -4 -15 -10 0 -13 -91 -13 -127 1 -34 13 -80 55 -99 91 -23 45 -18 122 13 181 17 33 29 76 33 117 7 73 42 157 85 209 16 19 56 47 90 62 49 24 73 29 135 29 41 0 93 -5 115 -11z m-44 -164 c-1 -15 -24 -12 -29 3 -3 9 2 13 12 10 10 -1 17 -7 17 -13z m-20 -58 c-13 -13 -26 -3 -16 12 3 6 11 8 17 5 6 -4 6 -10 -1 -17z"/><path d="M855 1231 c-9 -15 24 -28 88 -34 46 -4 57 -3 57 9 0 8 -12 19 -26 24 -32 13 -111 13 -119 1z"/><path d="M897 1154 c-11 -11 -8 -52 3 -59 6 -3 19 -3 31 0 28 9 23 59 -6 63 -12 2 -24 0 -28 -4z"/><path d="M1170 1138 c0 -16 99 -80 111 -72 20 12 7 35 -34 59 -48 27 -77 32 -77 13z"/><path d="M1039 1118 c-1 -7 -1 -16 0 -20 2 -18 -41 -117 -59 -133 -24 -22 -47 -14 -52 17 -4 33 -32 29 -36 -5 -6 -52 41 -82 88 -57 15 8 24 5 44 -15 14 -14 31 -25 39 -25 20 0 67 39 67 56 0 17 -31 19 -47 3 -6 -6 -16 -8 -22 -5 -17 11 -13 60 10 120 11 31 18 60 14 66 -9 14 -45 12 -46 -2z"/><path d="M1160 1055 c-19 -22 -8 -50 21 -53 31 -4 44 19 29 49 -13 23 -33 25 -50 4z"/><path d="M972 848 c3 -7 15 -15 27 -16 16 -3 22 1 19 10 -3 7 -15 15 -27 16 -16 3 -22 -1 -19 -10z"/><path d="M350 1360 c0 -15 5 -20 18 -18 9 2 17 10 17 18 0 8 -8 16 -17 18 -13 2 -18 -3 -18 -18z"/></g></svg>